{
  "accessors": [
    {
      "bufferView": 2,
      "componentType": 5126,
      "count": 4886,
      "max": [
        0.9033480286598206,
        0.4629020094871521,
        1.9338489770889282
      ],
      "min": [
        -0.9033480286598206,
        -0.4629020094871521,
        -1.9338489770889282
      ],
      "type": "VEC3"
    },
    {
      "bufferView": 2,
      "byteOffset": 58632,
      "componentType": 5126,
      "count": 4886,
      "max": [
        0.9999924898147583,
        0.9999960660934448,
        0.9993074536323547
      ],
      "min": [
        -0.9999924898147583,
        -0.9999924898147583,
        -0.9999849200248718
      ],
      "type": "VEC3"
    },
    {
      "bufferView": 1,
      "componentType": 5126,
      "count": 4886,
      "max": [
        0.9916200041770935,
        -0.010854000225663185
      ],
      "min": [
        0.007000000216066837,
        -0.9925829768180847
      ],
      "type": "VEC2"
    },
    {
      "bufferView": 1,
      "byteOffset": 39088,
      "componentType": 5126,
      "count": 4886,
      "max": [
        0.9916200041770935,
        -0.010854000225663185
      ],
      "min": [
        0.007000000216066837,
        -0.9925829768180847
      ],
      "type": "VEC2"
    },
    {
      "bufferView": 0,
      "componentType": 5125,
      "count": 14841,
      "type": "SCALAR"
    },
    {
      "bufferView": 2,
      "byteOffset": 117264,
      "componentType": 5126,
      "count": 502,
      "max": [
        0.567147970199585,
        0.30365699529647827,
        -1.4027550220489502
      ],
      "min": [
        -0.567147970199585,
        -0.05312100052833557,
        -1.7696369886398315
      ],
      "type": "VEC3"
    },
    {
      "bufferView": 2,
      "byteOffset": 123288,
      "componentType": 5126,
      "count": 502,
      "max": [
        0.9999927282333374,
        0.9866847395896912,
        0.9457864165306091
      ],
      "min": [
        -0.9999927282333374,
        -0.9930776357650757,
        -0.9996641874313354
      ],
      "type": "VEC3"
    },
    {
      "bufferView": 1,
      "byteOffset": 78176,
      "componentType": 5126,
      "count": 502,
      "max": [
        1.8744920492172241,
        -0.08095400035381317
      ],
      "min": [
        0.00990500021725893,
        -0.8916440010070801
      ],
      "type": "VEC2"
    },
    {
      "bufferView": 1,
      "byteOffset": 82192,
      "componentType": 5126,
      "count": 502,
      "max": [
        1.8744920492172241,
        -0.08095400035381317
      ],
      "min": [
        0.00990500021725893,
        -0.8916440010070801
      ],
      "type": "VEC2"
    },
    {
      "bufferView": 0,
      "byteOffset": 59364,
      "componentType": 5125,
      "count": 1482,
      "type": "SCALAR"
    },
    {
      "bufferView": 2,
      "byteOffset": 129312,
      "componentType": 5126,
      "count": 2882,
      "max": [
        0.6343349814414978,
        0.4337269961833954,
        1.2270419597625732
      ],
      "min": [
        -0.6343119740486145,
        -0.403219997882843,
        -1.0721420049667358
      ],
      "type": "VEC3"
    },
    {
      "bufferView": 2,
      "byteOffset": 163896,
      "componentType": 5126,
      "count": 2882,
      "max": [
        0.9999924898147583,
        0.9999924898147583,
        0.9999849200248718
      ],
      "min": [
        -0.9999924898147583,
        -0.9999924898147583,
        -0.9999229907989502
      ],
      "type": "VEC3"
    },
    {
      "bufferView": 1,
      "byteOffset": 86208,
      "componentType": 5126,
      "count": 2882,
      "max": [
        1.9925659894943237,
        -0.009654000401496887
      ],
      "min": [
        0.0077149998396635056,
        -0.9928680062294006
      ],
      "type": "VEC2"
    },
    {
      "bufferView": 1,
      "byteOffset": 109264,
      "componentType": 5126,
      "count": 2882,
      "max": [
        1.9925659894943237,
        -0.009654000401496887
      ],
      "min": [
        0.0077149998396635056,
        -0.9928680062294006
      ],
      "type": "VEC2"
    },
    {
      "bufferView": 0,
      "byteOffset": 65292,
      "componentType": 5125,
      "count": 8964,
      "type": "SCALAR"
    },
    {
      "bufferView": 2,
      "byteOffset": 198480,
      "componentType": 5126,
      "count": 188,
      "max": [
        0.624534010887146,
        0.431443989276886,
        1.1405290365219116
      ],
      "min": [
        -0.6245350241661072,
        0.05466499924659729,
        -1.0966930389404297
      ],
      "type": "VEC3"
    },
    {
      "bufferView": 2,
      "byteOffset": 200736,
      "componentType": 5126,
      "count": 188,
      "max": [
        0.9013445377349854,
        0.9982208609580994,
        0.9932372570037842
      ],
      "min": [
        -0.9020138382911682,
        0.10388936102390289,
        -0.3239900469779968
      ],
      "type": "VEC3"
    },
    {
      "bufferView": 1,
      "byteOffset": 132320,
      "componentType": 5126,
      "count": 188,
      "max": [
        0.9776570200920105,
        -0.01933000050485134
      ],
      "min": [
        0.024046000093221664,
        -0.9842600226402283
      ],
      "type": "VEC2"
    },
    {
      "bufferView": 0,
      "byteOffset": 101148,
      "componentType": 5125,
      "count": 636,
      "type": "SCALAR"
    },
    {
      "bufferView": 2,
      "byteOffset": 202992,
      "componentType": 5126,
      "count": 564,
      "max": [
        -0.11730100214481354,
        0.1817220002412796,
        0.44276800751686096
      ],
      "min": [
        -0.41413500905036926,
        -0.06756199896335602,
        0.2708919942378998
      ],
      "type": "VEC3"
    },
    {
      "bufferView": 2,
      "byteOffset": 209760,
      "componentType": 5126,
      "count": 564,
      "max": [
        0.9995875954627991,
        0.9917525053024292,
        0.9996176958084106
      ],
      "min": [
        -0.9996055364608765,
        -0.9996030330657959,
        -0.9998007416725159
      ],
      "type": "VEC3"
    },
    {
      "bufferView": 1,
      "byteOffset": 133824,
      "componentType": 5126,
      "count": 564,
      "max": [
        1.9645999670028687,
        -0.006099999882280827
      ],
      "min": [
        0.0070569999516010284,
        -0.5581539869308472
      ],
      "type": "VEC2"
    },
    {
      "bufferView": 1,
      "byteOffset": 138336,
      "componentType": 5126,
      "count": 564,
      "max": [
        1.9645999670028687,
        -0.006099999882280827
      ],
      "min": [
        0.0070569999516010284,
        -0.5581539869308472
      ],
      "type": "VEC2"
    },
    {
      "bufferView": 0,
      "byteOffset": 103692,
      "componentType": 5125,
      "count": 2046,
      "type": "SCALAR"
    },
    {
      "bufferView": 2,
      "byteOffset": 216528,
      "componentType": 5126,
      "count": 328,
      "max": [
        0.772487998008728,
        0.007765000220388174,
        1.290531039237976
      ],
      "min": [
        -0.7717499732971191,
        -0.5299379825592041,
        0.7517799735069275
      ],
      "type": "VEC3"
    },
    {
      "bufferView": 2,
      "byteOffset": 220464,
      "componentType": 5126,
      "count": 328,
      "max": [
        0.9999923706054688,
        0.9999924898147583,
        0.9999874234199524
      ],
      "min": [
        -0.9999924302101135,
        -0.9999924898147583,
        -0.9999819397926331
      ],
      "type": "VEC3"
    },
    {
      "bufferView": 1,
      "byteOffset": 142848,
      "componentType": 5126,
      "count": 328,
      "max": [
        1.2849479913711548,
        -0.010878999717533588
      ],
      "min": [
        0.009633000008761883,
        -0.3778359889984131
      ],
      "type": "VEC2"
    },
    {
      "bufferView": 1,
      "byteOffset": 145472,
      "componentType": 5126,
      "count": 328,
      "max": [
        1.2849479913711548,
        -0.010878999717533588
      ],
      "min": [
        0.009633000008761883,
        -0.3778359889984131
      ],
      "type": "VEC2"
    },
    {
      "bufferView": 0,
      "byteOffset": 111876,
      "componentType": 5125,
      "count": 1176,
      "type": "SCALAR"
    },
    {
      "bufferView": 2,
      "byteOffset": 224400,
      "componentType": 5126,
      "count": 328,
      "max": [
        0.8034579753875732,
        0.0011360000353306532,
        -0.96213698387146
      ],
      "min": [
        -0.8029659986495972,
        -0.5564829707145691,
        -1.5233960151672363
      ],
      "type": "VEC3"
    },
    {
      "bufferView": 2,
      "byteOffset": 228336,
      "componentType": 5126,
      "count": 328,
      "max": [
        0.9999900460243225,
        0.9999924898147583,
        0.9972209334373474
      ],
      "min": [
        -0.9999900460243225,
        -0.9999924898147583,
        -0.9972039461135864
      ],
      "type": "VEC3"
    },
    {
      "bufferView": 1,
      "byteOffset": 148096,
      "componentType": 5126,
      "count": 328,
      "max": [
        1.2849479913711548,
        -0.010878999717533588
      ],
      "min": [
        0.009633000008761883,
        -0.3778359889984131
      ],
      "type": "VEC2"
    },
    {
      "bufferView": 1,
      "byteOffset": 150720,
      "componentType": 5126,
      "count": 328,
      "max": [
        1.2849479913711548,
        -0.010878999717533588
      ],
      "min": [
        0.009633000008761883,
        -0.3778359889984131
      ],
      "type": "VEC2"
    },
    {
      "bufferView": 0,
      "byteOffset": 116580,
      "componentType": 5125,
      "count": 1176,
      "type": "SCALAR"
    }
  ],
  "asset": {
    "extras": {
      "author": "malharja (https://sketchfab.com/malharja)",
      "license": "CC-BY-4.0 (http://creativecommons.org/licenses/by/4.0/)",
      "source": "https://sketchfab.com/3d-models/mclaren-p1-purple-edb729a8d19a4ee588d2ff9d211aad33",
      "title": "mclaren-p1-purple"
    },
    "generator": "Sketchfab-12.68.0",
    "version": "2.0"
  },
  "bufferViews": [
    {
      "buffer": 0,
      "byteLength": 121284,
      "name": "floatBufferViews",
      "target": 34963
    },
    {
      "buffer": 0,
      "byteLength": 153344,
      "byteOffset": 121284,
      "byteStride": 8,
      "name": "floatBufferViews",
      "target": 34962
    },
    {
      "buffer": 0,
      "byteLength": 232272,
      "byteOffset": 274628,
      "byteStride": 12,
      "name": "floatBufferViews",
      "target": 34962
    }
  ],
  "buffers": [
    {
      "byteLength": 506900,
      "uri": "scene.bin"
    }
  ],
  "images": [
    {
      "uri": "textures/car_body_main_baseColor.png"
    },
    {
      "uri": "textures/Tex_0864_0.dds.003_baseColor.png"
    },
    {
      "uri": "textures/Tex_1044_0.dds_baseColor.png"
    }
  ],
  "materials": [
    {
      "doubleSided": true,
      "name": "car_body_main",
      "pbrMetallicRoughness": {
        "baseColorTexture": {
          "index": 0
        },
        "metallicFactor": 0.0,
        "roughnessFactor": 0.8211145618000169
      }
    },
    {
      "doubleSided": true,
      "name": "Tex_0864_0.dds.003",
      "pbrMetallicRoughness": {
        "baseColorTexture": {
          "index": 1
        },
        "metallicFactor": 0.0
      }
    },
    {
      "doubleSided": true,
      "name": "Tex_1044_0.dds",
      "pbrMetallicRoughness": {
        "baseColorTexture": {
          "index": 2
        },
        "metallicFactor": 0.0,
        "roughnessFactor": 0.7557944321290826
      }
    }
  ],
  "meshes": [
    {
      "name": "Car_body_car_body_main_0",
      "primitives": [
        {
          "attributes": {
            "NORMAL": 1,
            "POSITION": 0,
            "TEXCOORD_0": 2,
            "TEXCOORD_1": 3
          },
          "indices": 4,
          "material": 0,
          "mode": 4
        }
      ]
    },
    {
      "name": "back_car_body_main_0",
      "primitives": [
        {
          "attributes": {
            "NORMAL": 6,
            "POSITION": 5,
            "TEXCOORD_0": 7,
            "TEXCOORD_1": 8
          },
          "indices": 9,
          "material": 0,
          "mode": 4
        }
      ]
    },
    {
      "name": "interior_Tex_0864_0.dds.003_0",
      "primitives": [
        {
          "attributes": {
            "NORMAL": 11,
            "POSITION": 10,
            "TEXCOORD_0": 12,
            "TEXCOORD_1": 13
          },
          "indices": 14,
          "material": 1,
          "mode": 4
        }
      ]
    },
    {
      "name": "lines_Tex_1044_0.dds_0",
      "primitives": [
        {
          "attributes": {
            "NORMAL": 16,
            "POSITION": 15,
            "TEXCOORD_0": 17
          },
          "indices": 18,
          "material": 2,
          "mode": 4
        }
      ]
    },
    {
      "name": "steer_Tex_0864_0.dds.003_0",
      "primitives": [
        {
          "attributes": {
            "NORMAL": 20,
            "POSITION": 19,
            "TEXCOORD_0": 21,
            "TEXCOORD_1": 22
          },
          "indices": 23,
          "material": 1,
          "mode": 4
        }
      ]
    },
    {
      "name": "wheel0_Tex_0864_0.dds.003_0",
      "primitives": [
        {
          "attributes": {
            "NORMAL": 25,
            "POSITION": 24,
            "TEXCOORD_0": 26,
            "TEXCOORD_1": 27
          },
          "indices": 28,
          "material": 1,
          "mode": 4
        }
      ]
    },
    {
      "name": "wheel1_Tex_0864_0.dds.003_0",
      "primitives": [
        {
          "attributes": {
            "NORMAL": 30,
            "POSITION": 29,
            "TEXCOORD_0": 31,
            "TEXCOORD_1": 32
          },
          "indices": 33,
          "material": 1,
          "mode": 4
        }
      ]
    }
  ],
  "nodes": [
    {
      "children": [
        1
      ],
      "matrix": [
        1.0,
        0.0,
        0.0,
        0.0,
        0.0,
        2.220446049250313e-16,
        -1.0,
        0.0,
        0.0,
        1.0,
        2.220446049250313e-16,
        0.0,
        0.0,
        0.0,
        0.0,
        1.0
      ],
      "name": "Sketchfab_model"
    },
    {
      "children": [
        2
      ],
      "matrix": [
        0.009999999776482582,
        0.0,
        0.0,
        0.0,
        0.0,
        0.0,
        0.009999999776482582,
        0.0,
        0.0,
        -0.009999999776482582,
        0.0,
        0.0,
        0.0,
        0.0,
        0.0,
        1.0
      ],
      "name": "mclaren2.fbx"
    },
    {
      "children": [
        3,
        5,
        7,
        9,
        11,
        13,
        15
      ],
      "name": "RootNode"
    },
    {
      "children": [
        4
      ],
      "matrix": [
        86.60253964992069,
        -5.4906791899902904e-14,
        -50.000001261839145,
        0.0,
        8.146033805585142e-06,
        99.99999999999866,
        1.4109343846867601e-05,
        0.0,
        50.00000126183848,
        -1.6292067104909577e-05,
        86.60253964991954,
        0.0,
        -69.53312683105469,
        0.0,
        0.0,
        1.0
      ],
      "name": "Car_body"
    },
    {
      "mesh": 0,
      "name": "Car_body_car_body_main_0"
    },
    {
      "children": [
        6
      ],
      "matrix": [
        86.60253964992069,
        -5.4906791899902904e-14,
        -50.000001261839145,
        0.0,
        8.146033805585142e-06,
        99.99999999999866,
        1.4109343846867601e-05,
        0.0,
        50.00000126183848,
        -1.6292067104909577e-05,
        86.60253964991954,
        0.0,
        -69.53312683105469,
        0.0,
        0.0,
        1.0
      ],
      "name": "back"
    },
    {
      "mesh": 1,
      "name": "back_car_body_main_0"
    },
    {
      "children": [
        8
      ],
      "matrix": [
        86.60253964992069,
        -5.4906791899902904e-14,
        -50.000001261839145,
        0.0,
        8.146033805585142e-06,
        99.99999999999866,
        1.4109343846867601e-05,
        0.0,
        50.00000126183848,
        -1.6292067104909577e-05,
        86.60253964991954,
        0.0,
        -69.53312683105469,
        0.0,
        0.0,
        1.0
      ],
      "name": "interior"
    },
    {
      "mesh": 2,
      "name": "interior_Tex_0864_0.dds.003_0"
    },
    {
      "children": [
        10
      ],
      "matrix": [
        86.60253964992069,
        -5.4906791899902904e-14,
        -50.000001261839145,
        0.0,
        8.146033805585142e-06,
        99.99999999999866,
        1.4109343846867601e-05,
        0.0,
        50.00000126183848,
        -1.6292067104909577e-05,
        86.60253964991954,
        0.0,
        -69.53312683105469,
        -1.1207293272018433,
        0.0,
        1.0
      ],
      "name": "lines"
    },
    {
      "mesh": 3,
      "name": "lines_Tex_1044_0.dds_0"
    },
    {
      "children": [
        12
      ],
      "matrix": [
        86.60253964992069,
        -5.4906791899902904e-14,
        -50.000001261839145,
        0.0,
        8.146033805585142e-06,
        99.99999999999866,
        1.4109343846867601e-05,
        0.0,
        50.00000126183848,
        -1.6292067104909577e-05,
        86.60253964991954,
        0.0,
        -69.53312683105469,
        0.0,
        0.0,
        1.0
      ],
      "name": "steer"
    },
    {
      "mesh": 4,
      "name": "steer_Tex_0864_0.dds.003_0"
    },
    {
      "children": [
        14
      ],
      "matrix": [
        86.60253964992069,
        -5.4906791899902904e-14,
        -50.000001261839145,
        0.0,
        8.146033805585142e-06,
        99.99999999999866,
        1.4109343846867601e-05,
        0.0,
        50.00000126183848,
        -1.6292067104909577e-05,
        86.60253964991954,
        0.0,
        -69.53312683105469,
        0.0,
        0.0,
        1.0
      ],
      "name": "wheel0"
    },
    {
      "mesh": 5,
      "name": "wheel0_Tex_0864_0.dds.003_0"
    },
    {
      "children": [
        16
      ],
      "matrix": [
        86.60253964992069,
        -5.4906791899902904e-14,
        -50.000001261839145,
        0.0,
        8.146033805585142e-06,
        99.99999999999866,
        1.4109343846867601e-05,
        0.0,
        50.00000126183848,
        -1.6292067104909577e-05,
        86.60253964991954,
        0.0,
        -69.53312683105469,
        0.0,
        0.0,
        1.0
      ],
      "name": "wheel1"
    },
    {
      "mesh": 6,
      "name": "wheel1_Tex_0864_0.dds.003_0"
    }
  ],
  "samplers": [
    {
      "magFilter": 9729,
      "minFilter": 9987,
      "wrapS": 10497,
      "wrapT": 10497
    }
  ],
  "scene": 0,
  "scenes": [
    {
      "name": "Sketchfab_Scene",
      "nodes": [
        0
      ]
    }
  ],
  "textures": [
    {
      "sampler": 0,
      "source": 0
    },
    {
      "sampler": 0,
      "source": 1
    },
    {
      "sampler": 0,
      "source": 2
    }
  ]
}
